<svg width="24" height="24" viewBox="0 0 24 24" fill="none" xmlns="http://www.w3.org/2000/svg">
<g clip-path="url(#clip0_171_333)">
<path d="M-2.84726e-05 9.473C0.0607507 9.05846 0.105946 8.64079 0.182309 8.22937C0.522049 6.40755 1.31685 4.80703 2.54958 3.42157C3.91634 1.88807 5.58231 0.82521 7.57711 0.334301C10.6769 -0.427777 13.5459 0.111444 16.1143 2.02053C18.3413 3.6756 19.6909 5.89794 20.0852 8.64547C20.4841 11.4226 19.8171 13.9551 18.1293 16.207C18.0498 16.313 17.9688 16.4174 17.8722 16.5468C17.9361 16.6153 17.9969 16.6824 18.0608 16.7462C19.9153 18.6024 21.7714 20.4569 23.6259 22.313C24.0763 22.7634 24.1278 23.3088 23.7366 23.7C23.6041 23.8325 23.4124 23.9026 23.2472 24.0024H22.8717C22.641 23.8372 22.3839 23.6985 22.1844 23.5005C20.3657 21.6974 18.5579 19.885 16.747 18.074C16.6831 18.0101 16.6145 17.9478 16.5413 17.8792C16.4197 17.9712 16.3153 18.0522 16.2093 18.1301C13.5958 20.0626 10.7002 20.6501 7.55062 19.8709C5.59789 19.3878 3.95997 18.3499 2.61036 16.8585C1.33867 15.4543 0.520491 13.8242 0.177634 11.9603C0.102829 11.5566 0.0576339 11.1468 -0.00158691 10.74C-0.00158691 10.3177 -0.00158691 9.8969 -0.00158691 9.47456L-2.84726e-05 9.473ZM18.3304 10.0995C18.3226 5.56755 14.6306 1.87716 10.1018 1.87716C5.57296 1.87716 1.88101 5.56599 1.87166 10.0995C1.86231 14.6299 5.58231 18.3468 10.1127 18.3343C14.6493 18.3203 18.3382 14.6252 18.3319 10.1011L18.3304 10.0995Z" fill="#2F2F2F"/>
</g>
<defs>
<clipPath id="clip0_171_333">
<rect width="24" height="23.9984" fill="white" transform="translate(0 0.000793457)"/>
</clipPath>
</defs>
</svg>
