<svg width="40" height="38" viewBox="0 0 40 38" fill="none" xmlns="http://www.w3.org/2000/svg">
<g clip-path="url(#clip0_46_986)">
<path d="M11.7738 31.9306C11.7738 33.5758 11.2082 34.8612 10.0257 35.7866C8.8432 36.7121 7.19795 37.1748 5.1414 37.1748C3.08484 37.1748 1.38818 36.8663 0.0514221 36.1979V33.3702C0.874044 33.7815 1.79949 34.0899 2.72494 34.2956C3.65039 34.5013 4.52443 34.6555 5.34705 34.6555C6.52957 34.6555 7.40361 34.4498 7.96916 33.9871C8.53471 33.5244 8.79178 32.9074 8.79178 32.1876C8.79178 31.5193 8.53471 30.9023 8.02057 30.4396C7.50643 29.9768 6.42674 29.4113 4.83291 28.7429C3.13625 28.0745 1.95374 27.3033 1.28536 26.4293C0.616975 25.5552 0.257078 24.527 0.257078 23.293C0.257078 21.7506 0.82263 20.5681 1.90232 19.6941C2.98201 18.82 4.47302 18.3573 6.2725 18.3573C8.07199 18.3573 9.76865 18.7172 11.5167 19.4884L10.5399 21.9563C8.89461 21.2879 7.45502 20.928 6.16967 20.928C5.19281 20.928 4.47302 21.1336 3.95888 21.545C3.44474 21.9563 3.18767 22.5218 3.18767 23.2416C3.18767 23.7043 3.2905 24.1157 3.49615 24.4756C3.70181 24.8354 4.01029 25.1439 4.47302 25.4524C4.93574 25.7609 5.75836 26.1722 6.94088 26.6349C8.27764 27.2005 9.25451 27.7146 9.92289 28.2288C10.5913 28.7429 11.0026 29.257 11.3111 29.874C11.6195 30.491 11.7738 31.2108 11.7738 32.0334V31.9306Z" fill="#2F2F2F"/>
<path d="M25.707 36.9177H15.3214V18.563H25.707V21.0823H18.3034V26.0694H25.2442V28.5887H18.3034V34.347H25.707V36.9177Z" fill="#2F2F2F"/>
<path d="M32.6478 36.9177H29.6658V18.563H40V21.0823H32.5964V26.8406H39.5373V29.4113H32.5964V36.9177H32.6478Z" fill="#2F2F2F"/>
<path d="M8.02334 16H0L16.4883 1H24.5853L41 16H33.0503L23.1867 6.7C22.6715 6.25 22.1562 5.7 21.5673 5C20.9785 4.3 20.6104 3.8 20.4632 3.45C20.1688 3.95 19.7271 4.55 19.1382 5.25C18.5494 5.95 18.1077 6.45 17.7397 6.75L7.87612 16H8.02334Z" fill="#2F2F2F"/>
</g>
<defs>
<clipPath id="clip0_46_986">
<rect width="40" height="36.3496" fill="white" transform="translate(0 0.825195)"/>
</clipPath>
</defs>
</svg>
