<svg width="480" height="1018" viewBox="0 0 480 1018" fill="none" xmlns="http://www.w3.org/2000/svg">
<path d="M479.272 292.91C477.163 270.66 472.533 251.351 465.381 234.983C457.665 218.567 449.164 204.714 439.88 193.422C430.119 181.039 419.901 170.72 409.224 162.465C398.548 154.209 388.348 147.045 378.625 140.972C357.535 121.33 334.946 102.613 310.858 84.821C286.294 65.9378 261.271 49.1184 235.791 34.3627C209.746 19.5596 182.742 9.40569 154.778 3.90111C126.902 -2.64719 96.7368 1.12308 64.2829 15.2119C61.7117 25.5068 58.3376 35.2086 54.1605 44.3173C49.9834 53.426 45.8063 62.5347 41.6293 71.6434C36.8876 80.7047 32.7106 89.8134 29.098 98.9696C25.5732 107.082 23.1337 115.811 21.7793 125.157C15.3441 134.076 9.95015 144.134 5.59755 155.33C1.33271 165.482 -0.416574 179.525 0.349666 197.458C5.29302 206.283 10.2802 214.585 15.3113 222.366C19.8657 229.056 25.0284 235.271 30.7995 241.012C52.4774 233.374 73.911 232.023 95.1002 236.958C116.29 241.893 135.265 246.116 152.025 249.628C157.896 240.662 164.501 236.487 171.84 237.104C178.614 237.674 185.778 240.378 193.33 245.218C200.318 250.01 207.589 254.825 215.141 259.665C222.129 264.457 229.098 266.094 236.048 264.576C240.992 273.401 247.566 279.734 255.77 283.578C263.499 286.33 272.073 289.153 281.495 292.047C281.621 297.313 280.749 300.919 278.88 302.864C277.099 303.765 276.553 306.873 277.243 312.186C273.242 319.208 268.569 324.07 263.225 326.774C257.316 329.431 251.407 332.087 245.499 334.744C239.025 337.353 233.311 341.077 228.356 345.915C223.489 349.711 219.77 356.756 217.198 367.05C208.73 366.338 201.084 369.374 194.26 376.158C187.435 382.942 181.609 391.387 176.779 401.492C171.95 411.597 168.162 422.84 165.415 435.223C162.192 446.514 160.185 456.856 159.395 466.249C156.999 474.457 154.716 477.944 152.546 476.71C150.376 475.477 147.66 477.35 144.398 482.332C141.564 495.758 136.145 509.492 128.142 523.535C120.226 536.533 113.591 551.216 108.235 567.584C104.912 593.582 102.09 616.995 99.7706 637.822C97.5386 657.605 97.8032 678.124 100.564 699.378C105.785 738.708 114.745 774.147 127.442 805.697C139.575 837.199 154.23 865.76 171.406 891.38C188.105 915.908 206.479 937.424 226.527 955.927C246.576 974.431 266.279 990.277 285.637 1003.47C287.983 1002.61 290.241 1002.8 292.411 1004.04C294.582 1005.27 295.366 1002.71 294.763 996.351C298.665 1004.04 303.351 1009.16 308.821 1011.72C313.726 1014.24 319.328 1015.23 325.626 1014.71C331.836 1015.24 338.372 1015.26 345.234 1014.78C351.532 1014.26 357.416 1015.28 362.885 1017.85C367.452 1010.87 371.735 1003.87 375.737 996.853C379.086 990.828 382.046 982.668 384.618 972.373C387.44 972.611 389.071 970.12 389.51 964.901C389.384 959.635 390.45 957.097 392.708 957.287C390.199 946.565 389.27 940.706 389.922 939.71C390.098 937.622 391.076 936.128 392.858 935.227C394.075 934.278 395.291 933.329 396.508 932.38C397.813 930.388 398.315 927.802 398.013 924.623C396.457 916.084 396.4 906.619 397.842 896.229C399.372 884.796 400.902 873.362 402.432 861.929C403.962 850.495 404.601 839.512 404.35 828.98C403.534 818.401 400.002 809.695 393.754 802.863C374.208 805.424 356.231 802.861 339.821 795.175C322.935 786.397 307.397 775.105 293.207 761.299C279.018 747.492 265.763 732.714 253.442 716.962C240.557 701.163 227.823 686.954 215.24 674.334C214.336 664.798 212.736 656.78 210.44 650.28C207.579 643.733 204.674 637.708 201.726 632.204C198.777 626.701 196.155 620.699 193.859 614.2C191.563 607.7 190.245 599.706 189.906 590.217C189.956 582.864 191.436 578.784 194.346 577.978C196.78 576.08 198.26 572 198.787 565.738L208.496 561.824C220.188 551.245 233.116 542.872 247.279 536.705C261.53 529.495 273.849 521.596 284.236 513.01C289.919 519.794 295.715 521.858 301.624 519.202C306.968 516.498 314.006 513.936 322.737 511.517C342.107 511.043 361.044 508.957 379.548 505.257C397.488 501.51 415.214 493.54 432.727 481.349C434.294 476.225 436.101 471.647 438.145 467.614C440.19 463.582 443.383 462.799 447.724 465.266C451.813 457.201 455.858 449.658 459.86 442.637C463.949 434.572 467.8 425.961 471.413 416.805C471.337 404.186 471.368 393.677 471.505 385.28C471.73 375.839 474.17 367.11 478.824 359.092C477.706 345.334 476.934 334.232 476.507 325.788C476.08 317.343 477.002 306.384 479.272 292.91Z" fill="#FFF137"/>
</svg>
