<svg width="789" height="869" viewBox="0 0 789 869" fill="none" xmlns="http://www.w3.org/2000/svg">
<path d="M690.603 824.619C687.299 826.888 683.813 829.47 680.144 832.366L649.162 829.414L653.723 852.202C648.21 854.861 643.244 856.582 638.825 857.362C635.146 858.574 630.545 859.668 625.022 860.644C615.09 864.085 605.705 866.586 596.868 868.147C587.291 869.278 579.36 868.432 573.077 865.61L561.432 860.084L553.74 868.184C541.558 865.281 532.701 863.476 527.167 862.768C520.894 861.63 515.001 862.39 509.488 865.05C470.307 847.256 440.334 828.116 419.569 807.63C398.063 786.712 376.902 761.802 356.086 732.898C357.505 723.66 357.267 714.714 355.372 706.06C353.841 696.781 351.946 688.128 349.686 680.101C347.426 672.073 345.906 664.477 345.126 657.313C343.606 649.717 343.753 643.511 345.567 638.697L344.943 627.01C336.349 607.743 330.882 587.363 328.541 565.868C325.46 543.942 322.744 521.39 320.393 498.211C319.177 479.888 317.591 461.349 315.635 442.595C313.304 422.784 309.321 404.107 303.686 386.564C307.345 381.986 308.789 376.956 308.019 371.474C305.779 366.814 301.7 362.76 295.781 359.312C295.032 357.197 294.652 355.298 294.641 353.615C294.256 350.874 293.689 348.446 292.939 346.332C291.794 339.793 290.821 331.258 290.02 320.726C289.22 310.194 285.48 301.305 278.801 294.058L267.537 259.816L252.228 288.642C244.577 303.477 236.748 319.466 228.741 336.61C221.1 353.128 214.735 367.454 209.648 379.588C205.655 389.843 201.109 400.197 196.012 410.647C190.174 420.667 184.159 431.842 177.967 444.171C151.86 454.964 121.826 456.338 87.8653 448.296C53.5294 439.196 24.4939 422.699 0.75884 398.805C2.57295 393.99 3.6523 389.586 3.99688 385.593C3.60165 381.169 3.57633 376.96 3.92092 372.967C6.46472 366.9 8.65379 363.142 10.4882 361.695C12.3225 360.247 14.1518 357.958 15.9761 354.827C22.4927 335.137 28.6647 319.441 34.4921 307.737C39.9445 294.977 45.5895 283.587 51.4271 273.567C57.6295 262.921 64.3893 253.02 71.7065 243.862C78.2838 234.273 86.1584 225.86 95.3302 218.622C108.1 196.703 119.942 173.826 130.857 149.988C141.772 126.151 157.121 104.058 176.904 83.7095C180.096 62.922 187.915 45.2494 200.361 30.6915C213.171 15.5074 230.622 5.96329 252.716 2.05924C265.658 8.76043 276.735 11.8588 285.947 11.3545C294.784 9.79285 302.872 6.11669 310.209 0.326075C334.583 7.81599 353.631 18.4941 367.353 32.3602C381.44 45.6002 392.036 60.5807 399.14 77.3016C406.244 94.0225 411.144 111.976 413.84 131.161C416.161 149.289 418.112 167.201 419.692 184.898C424.162 192.535 426.974 200.464 428.129 208.686C428.91 215.851 430.982 223.35 434.347 231.181C453.38 269.95 466.889 309.695 474.875 350.416C482.486 390.079 488.809 430.251 493.846 470.931C497.707 500.022 501.938 529.328 506.539 558.85C510.765 587.315 516.836 616.016 524.751 644.952L529.266 660.164L545.289 658.176C558.545 655.833 568.091 649.652 573.929 639.632C577.213 633.996 579.574 628.242 581.013 622.37C582.077 615.441 582.959 608.825 583.658 602.522C585.097 596.65 586.172 591.405 586.881 586.785C586.851 581.735 587.748 577.644 589.572 574.513L596.686 562.301C595.906 555.136 595.866 548.403 596.565 542.1C597.264 535.797 598.333 529.709 599.773 523.837C601.212 517.966 602.468 512.407 603.543 507.161C604.617 501.915 604.764 495.71 603.984 488.545C612.01 474.768 617.27 460.637 619.763 446.153C622.621 431.042 624.739 415.5 626.118 399.527C626.797 389.857 627.663 380.716 628.717 372.104C630.136 362.865 632.295 354.057 635.193 345.68C640.352 345.33 645.323 344.452 650.107 343.045C654.515 340.58 658.741 338.429 662.785 336.591C673.447 331.898 681.549 330.747 687.093 333.138L719.807 348.424L709.12 318.292C720.897 315.087 731.776 315.973 741.759 320.951C751.001 325.497 762.291 333.332 775.628 344.458C787.628 378.29 791.529 414.115 787.333 451.933C783.138 489.75 777.477 529.231 770.352 570.375C768.559 578.556 766.582 587.051 764.424 595.859C762.63 604.04 761.206 612.438 760.152 621.05L741.834 609.12L745.33 638.837C746.09 642.635 747.033 646.12 748.158 649.292C749.647 651.837 751.137 654.383 752.627 656.928C748.32 676.227 744.174 691.846 740.192 703.785C736.209 715.724 732.591 727.037 729.337 737.724C726.094 750.094 722.476 761.406 718.483 771.662C715.23 782.349 710.502 793.015 704.3 803.661C702.475 806.792 700.469 810.236 698.28 813.993C696.091 817.751 693.532 821.293 690.603 824.619Z"/>
</svg>
