<svg width="266" height="31" viewBox="0 0 266 31" fill="none" xmlns="http://www.w3.org/2000/svg">
<path d="M35.5467 25.2736C27.1014 26.058 20.467 26.0622 15.6434 25.2861C10.8231 24.6132 7.25907 23.4873 4.95147 21.9086C2.36503 20.4419 0.898755 18.6816 0.552645 16.6276C0.206535 14.5735 0.427715 12.6047 1.21619 10.7212C5.13276 9.5643 10.0397 8.47922 15.937 7.46595C21.8343 6.45268 27.8742 5.4865 34.0567 4.56742C40.5213 3.63938 46.8465 2.7674 53.0322 1.95147C59.2211 1.23869 64.7066 0.599875 69.4885 0.0350239C72.889 0.443299 76.7062 0.631842 80.9401 0.600651C85.4592 0.663653 89.9751 0.623506 94.4878 0.48021C99.0037 0.440063 103.518 0.348341 108.031 0.205044C112.829 0.155941 117.346 0.167369 121.583 0.239328C133.451 0.585222 144.765 1.25848 155.525 2.25909C166.287 3.36286 177.463 4.14374 189.052 4.60174C191.597 4.72743 193.991 4.54816 196.235 4.06391C198.482 3.68281 200.595 3.56407 202.576 3.70767C203.707 3.775 204.422 4.06206 204.72 4.56885C205.3 5.06669 206.297 5.34479 207.711 5.40316C210.823 5.61409 213.363 5.58506 215.331 5.31607C217.302 5.15023 219.705 5.2804 222.542 5.70659C224.814 6.15069 228.077 6.66659 232.33 7.2543C236.868 7.9362 241.532 8.09787 246.32 7.73932C248.041 8.61393 250.043 9.42801 252.325 10.1816C254.607 10.9351 256.606 11.6976 258.324 12.4691C260.328 13.3347 262.05 14.2609 263.492 15.2476C264.938 16.3375 265.685 17.656 265.733 19.2033C262.938 20.118 259.851 20.7323 256.473 21.0461C253.098 21.463 249.722 21.8283 246.344 22.1421C242.969 22.559 239.738 23.0746 236.652 23.6889C233.847 24.2942 231.618 25.2426 229.964 26.5342C227.708 26.6058 224.888 26.6954 221.503 26.8028C218.119 26.9103 214.736 27.0694 211.354 27.28C208.255 27.4816 205.3 27.782 202.489 28.181C199.964 28.6742 198.291 29.3468 197.47 30.1989C183.874 28.7721 170.423 27.444 157.115 26.2145C143.811 25.0882 130.374 24.2242 116.804 23.6226C103.516 23.0121 90.0981 22.767 76.5504 22.8874C63.0059 23.111 49.338 23.9064 35.5467 25.2736Z" fill="#FFF137"/>
</svg>
